<?xml version="1.0" encoding="UTF-8"?>
<svg id="Capa_1" data-name="Capa 1" xmlns="http://www.w3.org/2000/svg" xmlns:xlink="http://www.w3.org/1999/xlink" viewBox="0 0 139.16 38.73">
  <defs>
    <style>
      .cls-1 {
        fill: url(#Degradado_sin_nombre_129);
      }

      .cls-2 {
        fill: url(#Degradado_sin_nombre_129-7);
      }

      .cls-3 {
        fill: url(#Degradado_sin_nombre_129-6);
      }

      .cls-4 {
        fill: url(#Degradado_sin_nombre_129-5);
      }

      .cls-5 {
        fill: url(#Degradado_sin_nombre_129-4);
      }

      .cls-6 {
        fill: url(#Degradado_sin_nombre_129-3);
      }

      .cls-7 {
        fill: url(#Degradado_sin_nombre_129-2);
      }
    </style>
    <linearGradient id="Degradado_sin_nombre_129" data-name="Degradado sin nombre 129" x1="9.45" y1="19.37" x2="41.69" y2="19.37" gradientUnits="userSpaceOnUse">
      <stop offset="0" stop-color="#e28030"/>
      <stop offset=".25" stop-color="#dd702e"/>
      <stop offset=".71" stop-color="#d7572c"/>
      <stop offset="1" stop-color="#d54f2c"/>
    </linearGradient>
    <linearGradient id="Degradado_sin_nombre_129-2" data-name="Degradado sin nombre 129" x1="35.71" y1="18.31" x2="51.26" y2="18.31" xlink:href="#Degradado_sin_nombre_129"/>
    <linearGradient id="Degradado_sin_nombre_129-3" data-name="Degradado sin nombre 129" x1="0" y1="18.28" x2="15.55" y2="18.28" xlink:href="#Degradado_sin_nombre_129"/>
    <linearGradient id="Degradado_sin_nombre_129-4" data-name="Degradado sin nombre 129" x1="130.93" y1="6.35" x2="130.93" y2="30.97" xlink:href="#Degradado_sin_nombre_129"/>
    <linearGradient id="Degradado_sin_nombre_129-5" data-name="Degradado sin nombre 129" x1="91.44" y1="6.35" x2="91.44" y2="30.97" xlink:href="#Degradado_sin_nombre_129"/>
    <linearGradient id="Degradado_sin_nombre_129-6" data-name="Degradado sin nombre 129" x1="73.12" y1="6.35" x2="73.12" y2="30.97" xlink:href="#Degradado_sin_nombre_129"/>
    <linearGradient id="Degradado_sin_nombre_129-7" data-name="Degradado sin nombre 129" x1="110.91" y1="6.35" x2="110.91" y2="30.97" xlink:href="#Degradado_sin_nombre_129"/>
  </defs>
  <g>
    <path class="cls-1" d="M29.85,18.8c2.79-2.16,4.67-6.27,4.67-10.14,0-5.64-3.99-8.66-8.94-8.66s-8.94,3.02-8.94,8.66c0,3.87,1.88,7.97,4.67,10.14-6.83,1.54-11.85,6.55-11.85,11.28.11,5.64,7.29,8.66,16.18,8.66s16.06-3.02,16.06-8.66c0-4.73-5.01-9.74-11.85-11.28Z"/>
    <path class="cls-7" d="M44.6,18c1.59-1.2,2.62-3.53,2.62-5.7,0-3.19-2.22-4.9-5.01-4.9s-5.01,1.71-5.01,4.9c0,2.16,1.08,4.5,2.62,5.7-1.59.34-3.02,1.08-4.1,1.94,3.93,2.28,6.66,5.75,7.06,9.28,4.73-.17,8.49-1.82,8.49-4.9,0-2.62-2.85-5.47-6.66-6.32Z"/>
    <path class="cls-6" d="M15.55,19.94c-1.14-.85-2.51-1.59-4.1-1.94,1.59-1.2,2.62-3.53,2.62-5.7,0-3.19-2.22-4.9-5.01-4.9s-5.01,1.71-5.01,4.9c0,2.16,1.08,4.5,2.62,5.7-3.82.85-6.66,3.7-6.66,6.32,0,3.08,3.76,4.73,8.49,4.84.4-3.47,3.13-6.95,7.06-9.23Z"/>
  </g>
  <g>
    <path class="cls-5" d="M130.93,7.07c6.34,0,8.23,3.45,8.23,12.75,0,7.3-.41,14.01-8.23,14.01-6.34,0-8.23-3.45-8.23-12.75,0-7.27.41-14.01,8.23-14.01ZM128.04,22.23c0,6.6.59,8.12,2.89,8.12s2.89-2.08,2.89-8.82v-2.86c0-6.6-.59-8.12-2.89-8.12s-2.89,2.08-2.89,8.82v2.85Z"/>
    <path class="cls-4" d="M91.39,33.31V14.78h-5.23v-3.48h.48c3.49,0,5.64-1.34,6.15-4.23h3.93v26.25h-5.34Z"/>
    <g>
      <path class="cls-3" d="M70.82,26.23h-7.08v-4.6h7.08v-7.08h4.6v7.08h7.08v4.6h-7.08v7.08h-4.6v-7.08Z"/>
      <path class="cls-2" d="M110.91,7.07c6.34,0,8.23,3.45,8.23,12.75,0,7.3-.41,14.01-8.23,14.01-6.34,0-8.23-3.45-8.23-12.75,0-7.27.41-14.01,8.23-14.01ZM108.02,22.23c0,6.6.59,8.12,2.89,8.12s2.89-2.08,2.89-8.82v-2.86c0-6.6-.59-8.12-2.89-8.12s-2.89,2.08-2.89,8.82v2.85Z"/>
    </g>
  </g>
</svg>