<?xml version="1.0" encoding="UTF-8"?>
<svg id="Capa_1" data-name="Capa 1" xmlns="http://www.w3.org/2000/svg" viewBox="0 0 60.85 60.85">
  <defs>
    <style>
      .cls-1 {
        fill: none;
        stroke: #e66600;
        stroke-miterlimit: 10;
        stroke-width: .85px;
      }

      .cls-2 {
        fill: #e66600;
      }
    </style>
  </defs>
  <g>
    <path class="cls-2" d="M43.77,31.7h-2.9c.3.81.46,1.68.46,2.59v10.97c0,.38-.07.74-.19,1.08h4.8c1.79,0,3.25-1.46,3.25-3.25v-5.98c0-2.99-2.43-5.42-5.42-5.42Z"/>
    <path class="cls-2" d="M19.53,34.29c0-.91.16-1.78.46-2.59h-2.9c-2.99,0-5.42,2.43-5.42,5.42v5.98c0,1.79,1.46,3.25,3.25,3.25h4.8c-.12-.34-.19-.7-.19-1.08v-10.97Z"/>
    <path class="cls-2" d="M33.74,28.87h-6.63c-2.99,0-5.42,2.43-5.42,5.42v10.97c0,.6.49,1.08,1.08,1.08h15.3c.6,0,1.08-.49,1.08-1.08v-10.97c0-2.99-2.43-5.42-5.42-5.42Z"/>
    <path class="cls-2" d="M30.43,14.51c-3.59,0-6.51,2.92-6.51,6.51,0,2.44,1.34,4.56,3.33,5.68.94.53,2.03.83,3.18.83s2.24-.3,3.18-.83c1.99-1.12,3.33-3.25,3.33-5.68,0-3.59-2.92-6.51-6.51-6.51Z"/>
    <path class="cls-2" d="M18.99,20.58c-2.69,0-4.87,2.19-4.87,4.87s2.19,4.87,4.87,4.87c.68,0,1.33-.14,1.92-.39,1.02-.44,1.86-1.22,2.38-2.19.36-.68.57-1.46.57-2.29,0-2.69-2.19-4.87-4.87-4.87Z"/>
    <path class="cls-2" d="M41.87,20.58c-2.69,0-4.87,2.19-4.87,4.87,0,.83.21,1.61.57,2.29.52.97,1.36,1.75,2.38,2.19.59.25,1.24.39,1.92.39,2.69,0,4.87-2.19,4.87-4.87s-2.19-4.87-4.87-4.87Z"/>
  </g>
  <circle class="cls-1" cx="30.43" cy="30.43" r="30"/>
</svg>